<?xml version="1.0" encoding="UTF-8"?>
<svg version="1.1" xmlns="http://www.w3.org/2000/svg" width="549" height="561">
<path d="M0 0 C181.17 0 362.34 0 549 0 C549 185.13 549 370.26 549 561 C367.83 561 186.66 561 0 561 C0 375.87 0 190.74 0 0 Z " fill="#FE0031" transform="translate(0,0)"/>
<path d="M0 0 C1.75218648 -0.00729634 3.50436042 -0.01846652 5.25650024 -0.03318787 C9.98624995 -0.06125178 14.71411952 -0.03328661 19.44372153 0.00680852 C24.40606976 0.04091774 29.36833288 0.02841723 34.33076477 0.02256775 C42.65880834 0.0199247 50.98611657 0.05304272 59.31396484 0.10839844 C68.93063991 0.17195658 78.54624015 0.18241487 88.16308278 0.16371256 C97.43395222 0.14660914 106.70444471 0.16359055 115.97525978 0.1972332 C119.91252453 0.21113546 123.84955787 0.21380851 127.78684044 0.20747566 C132.42401951 0.20181023 137.06010977 0.226262 141.69704056 0.27365685 C143.39489168 0.28634496 145.09285357 0.28896406 146.79073143 0.28058624 C162.34797072 0.21548586 162.34797072 0.21548586 168.05295277 5.57214451 C168.51283431 6.08192813 168.97271585 6.59171175 169.4465332 7.11694336 C170.44030975 8.12062202 170.44030975 8.12062202 171.4541626 9.14457703 C171.93278748 9.73833633 172.41141235 10.33209564 172.90454102 10.94384766 C176.73642535 15.51080579 180.89062011 19.68725567 185.1184082 23.88647461 C185.92264221 24.68929367 186.72687622 25.49211273 187.55548096 26.31925964 C190.10013791 28.8583678 192.64826384 31.39396119 195.1965332 33.92944336 C196.92202593 35.64991353 198.64728852 37.37061454 200.37231445 39.09155273 C204.15549398 42.86495048 207.94085658 46.63614196 211.72821045 50.40534973 C212.57878021 51.25258858 212.57878021 51.25258858 213.4465332 52.11694336 C214.00282913 52.62139481 214.55912506 53.12584625 215.13227844 53.64558411 C218.59970125 57.52749863 217.72985719 65.57757097 217.98168945 70.68725586 C218.02521042 71.55687958 218.06873138 72.4265033 218.11357117 73.32247925 C219.37208999 99.71958736 219.86721859 126.16634578 220.10139942 152.59049416 C220.14829219 157.87546932 220.21117091 163.15899345 220.31546021 168.44317627 C220.41391884 173.50458388 220.46214319 178.56417233 220.4742527 183.62649918 C220.48686082 185.51252907 220.51654804 187.3985348 220.56467247 189.28399277 C220.95993938 205.55042862 220.95993938 205.55042862 214.63110352 212.53100586 C212.91692024 214.07534222 211.18937929 215.60502846 209.4465332 217.11694336 C207.06780772 219.85074753 205.59446412 221.67315062 204.4465332 225.11694336 C202.79173811 226.46498222 201.12331662 227.79635526 199.4465332 229.11694336 C197.98339284 230.76431125 196.56797247 232.45498547 195.1965332 234.17944336 C194.03250977 235.63157227 194.03250977 235.63157227 192.8449707 237.11303711 C192.05348633 238.10432617 191.26200195 239.09561523 190.4465332 240.11694336 C188.15974777 242.90468011 185.86689371 245.68714913 183.56762695 248.46459961 C182.19458198 250.18153798 180.86974953 251.93864579 179.60668945 253.73803711 C179.03821289 254.54370117 178.46973633 255.34936523 177.8840332 256.17944336 C177.40836914 256.89229492 176.93270508 257.60514648 176.44262695 258.33959961 C170.30398867 263.80551041 159.94744794 262.38561723 152.31958008 262.34399414 C150.89969897 262.34342921 149.47981729 262.34374818 148.05993652 262.34487915 C144.22576993 262.34545047 140.39172974 262.33373213 136.55759239 262.31973124 C132.54308089 262.30718688 128.52856616 262.30605046 124.51403809 262.30368042 C116.92109333 262.29747651 109.3282065 262.28108049 101.73528719 262.26098144 C93.08714861 262.23858847 84.4390072 262.22762048 75.79084682 262.21759057 C58.00937617 262.19671325 40.22795935 262.16155854 22.4465332 262.11694336 C22.57691628 267.86611465 22.70910817 273.61524067 22.84288025 279.36433411 C22.88801875 281.31470145 22.93268749 283.26507973 22.97685242 285.21546936 C23.21575278 295.7515665 23.47491945 306.27851898 24.0090332 316.80444336 C24.67564639 330.90098566 24.53736595 345.00852166 24.4465332 359.11694336 C-14.13346678 361.7217145 -14.13346678 361.7217145 -22.3347168 356.02319336 C-25.56677265 353.0177604 -28.089445 349.61527969 -30.41137695 345.87231445 C-31.8936992 343.5940124 -33.67277733 342.03605213 -35.8034668 340.36694336 C-39.58001376 337.1815081 -43.01537659 333.68290965 -46.48144531 330.16943359 C-49.74775361 326.87586346 -53.1327603 323.80182324 -56.65893555 320.79272461 C-59.33808226 318.42292267 -61.81988333 315.87672624 -64.3034668 313.30444336 C-66.41143854 311.1442368 -66.41143854 311.1442368 -68.48927307 309.73832703 C-74.10512933 305.53012098 -74.10512933 305.53012098 -75.29171753 301.78994751 C-75.55746503 299.06482351 -75.58344413 296.43631567 -75.51831055 293.69897461 C-75.52681534 292.6876799 -75.53532013 291.67638519 -75.54408264 290.63444519 C-75.56354921 287.39826309 -75.52898572 284.16541059 -75.4909668 280.92944336 C-75.49048037 278.83764401 -75.49370697 276.74584034 -75.50073242 274.65405273 C-75.510921 271.45953083 -75.51818669 268.26529082 -75.51144409 265.070755 C-75.5033944 257.24221068 -75.7125502 249.43874552 -76.02612305 241.61694336 C-76.4347873 231.31914341 -76.69663685 221.02678377 -76.8347168 210.72241211 C-76.84412418 210.02239452 -76.85353157 209.32237694 -76.86322403 208.6011467 C-76.92065103 204.25331652 -76.97373303 199.90543961 -77.02598953 195.55754471 C-77.11108441 188.57987088 -77.20530122 181.60231086 -77.29956055 174.62475586 C-77.30979689 173.86051615 -77.32003323 173.09627644 -77.33057976 172.30887794 C-77.48391343 160.947656 -77.70014415 149.58953761 -77.98291016 138.23071289 C-78.07384028 134.55995477 -78.15176789 130.88934307 -78.21582031 127.21801758 C-78.23159622 126.31417328 -78.24737213 125.41032898 -78.2636261 124.47909546 C-78.29539054 122.64416249 -78.32671187 120.80922179 -78.35758972 118.97427368 C-78.47966256 112.3944446 -78.71062622 105.82285693 -78.96955872 99.24708557 C-79.15326883 94.20746603 -79.27648249 89.16736408 -79.3888855 84.1257019 C-79.45605714 81.69348615 -79.54810309 79.26180879 -79.66702271 76.83157349 C-80.62552228 56.85810062 -80.62552228 56.85810062 -75.62963867 51.11962891 C-72.74150884 48.41669436 -69.59982662 46.24492481 -66.23257446 44.18228149 C-64.05089086 42.79807559 -62.249297 41.14996216 -60.4050293 39.34741211 C-59.85943359 38.83533203 -59.31383789 38.32325195 -58.75170898 37.7956543 C-58.23253906 37.30355469 -57.71336914 36.81145508 -57.1784668 36.30444336 C-53.01389392 32.39856829 -48.83003961 28.53804597 -44.4987793 24.81616211 C-41.15415825 21.89465577 -37.91131124 18.8589694 -34.6550293 15.83959961 C-32.5534668 14.11694336 -32.5534668 14.11694336 -30.5534668 14.11694336 C-30.5534668 13.45694336 -30.5534668 12.79694336 -30.5534668 12.11694336 C-29.8934668 12.11694336 -29.2334668 12.11694336 -28.5534668 12.11694336 C-28.5534668 11.45694336 -28.5534668 10.79694336 -28.5534668 10.11694336 C-20.29398947 0.30790903 -11.98233663 -0.17570999 0 0 Z " fill="#F3F1F1" transform="translate(202.553466796875,106.883056640625)"/>
<path d="M0 0 C11.48322473 -0.06957936 22.96639912 -0.12285167 34.44979191 -0.15543652 C39.78227764 -0.17107738 45.11461889 -0.19228697 50.44702148 -0.22631836 C55.59524896 -0.2589679 60.74333765 -0.2768649 65.89166069 -0.28463173 C67.8536135 -0.29016518 69.8155589 -0.30097066 71.77745247 -0.31719017 C74.5302674 -0.33903871 77.28251239 -0.34196381 80.03540039 -0.34057617 C80.84244919 -0.351362 81.64949799 -0.36214783 82.48100281 -0.3732605 C89.06900793 -0.33744043 93.79333617 0.94379052 98.75 5.5625 C104.92474914 13.88775137 104.4884763 24.46260074 104.50390625 34.3515625 C104.51357013 35.82026448 104.52366422 37.28896368 104.53416443 38.75765991 C104.55201557 41.8186513 104.55769628 44.87939001 104.5559082 47.94042969 C104.55560243 51.84559853 104.59669926 55.74914198 104.64822483 59.65392494 C104.68170324 62.68074884 104.68766255 65.70718279 104.68607903 68.73417282 C104.68959622 70.17340111 104.70273644 71.612642 104.72607613 73.05168533 C104.83916905 80.73768365 104.85444613 86.59781172 99.67881775 92.59115601 C93.11217768 98.10180267 83.84886908 98.15235501 75.69970703 98.11352539 C74.88928452 98.11367142 74.078862 98.11381744 73.24388123 98.1139679 C70.5818305 98.11327471 67.91985091 98.10551023 65.2578125 98.09765625 C63.40550779 98.09578996 61.55320259 98.09436705 59.70089722 98.09336853 C54.8380394 98.08955997 49.97521169 98.07974392 45.11236572 98.06866455 C40.14522712 98.05841466 35.17808364 98.05386325 30.2109375 98.04882812 C20.47394514 98.03812012 10.73697508 98.02106371 1 98 C0.21650758 65.3266991 -0.10858876 32.68198745 0 0 Z " fill="#FE0032" transform="translate(222,190)"/>
<path d="M0 0 C1.76514556 0.00254284 3.53030062 0.00110551 5.29544067 -0.00398254 C10.05788156 -0.00655135 14.81825751 0.04613526 19.58022094 0.10918307 C24.56755797 0.16567456 29.55494914 0.17074959 34.54255676 0.18141174 C43.97391617 0.20931805 53.40432993 0.28308138 62.83527404 0.37355715 C73.57763327 0.47436362 84.3200391 0.52369045 95.06275403 0.56881607 C117.1488893 0.66273762 139.23417497 0.82090882 161.31958008 1.02172852 C161.31958008 1.35172852 161.31958008 1.68172852 161.31958008 2.02172852 C160.41382201 2.0204297 159.50806395 2.01913088 158.57485867 2.0177927 C136.53261088 1.98858732 114.49067343 1.99794693 92.44846249 2.05019474 C81.78895767 2.07453218 71.12973715 2.08583157 60.47021484 2.06640625 C51.17900408 2.04950757 41.88819094 2.05710372 32.59703261 2.0940761 C27.67758624 2.11279766 22.75881232 2.11927842 17.83936882 2.0964222 C13.20726272 2.07528809 8.57638773 2.08694792 3.94438934 2.1235733 C2.24609294 2.1312559 0.54769376 2.12703948 -1.15053368 2.10991478 C-10.0281873 1.75219712 -10.0281873 1.75219712 -18.18673515 4.56881523 C-19.91803044 6.29675055 -21.27132069 8.03198104 -22.68041992 10.02172852 C-25.43041992 12.02172852 -25.43041992 12.02172852 -27.68041992 13.02172852 C-28.67041992 12.69172852 -29.66041992 12.36172852 -30.68041992 12.02172852 C-30.02041992 12.02172852 -29.36041992 12.02172852 -28.68041992 12.02172852 C-28.68041992 11.36172852 -28.68041992 10.70172852 -28.68041992 10.02172852 C-20.39602334 0.1429564 -12.02788527 -0.24409851 0 0 Z " fill="#CDA8F8" transform="translate(202.680419921875,106.978271484375)"/>
<path d="M0 0 C0.33 0 0.66 0 1 0 C1.98420283 18.34648311 2.11824227 36.63424694 2 55 C-3.78404741 55.09880115 -9.56760484 55.1714363 -15.35229492 55.21972656 C-17.3204809 55.23985481 -19.28860699 55.26716019 -21.2565918 55.30175781 C-24.0839718 55.35022311 -26.91056201 55.37295618 -29.73828125 55.390625 C-30.61962234 55.41127014 -31.50096344 55.43191528 -32.40901184 55.45318604 C-38.53231125 55.45544041 -38.53231125 55.45544041 -41.07885742 52.97558594 C-41.38283447 52.32364258 -41.68681152 51.67169922 -42 51 C-40.02 51.33 -38.04 51.66 -36 52 C-36 52.66 -36 53.32 -36 54 C-24.12 54 -12.24 54 0 54 C0 36.18 0 18.36 0 0 Z " fill="#D58CCC" transform="translate(225,411)"/>
<path d="M0 0 C2.97 0.495 2.97 0.495 6 1 C6 1.66 6 2.32 6 3 C18.21 3 30.42 3 43 3 C43 3.33 43 3.66 43 4 C37.35836923 4.0988093 31.71724101 4.17143996 26.07495117 4.21972656 C24.15526559 4.23985348 22.23564138 4.2671579 20.31616211 4.30175781 C17.55827704 4.3502293 14.80120173 4.37295742 12.04296875 4.390625 C11.18350143 4.41127014 10.32403412 4.43191528 9.43852234 4.45318604 C3.46461293 4.45544041 3.46461293 4.45544041 0.93481445 1.97558594 C0.62632568 1.32364258 0.31783691 0.67169922 0 0 Z " fill="#CBA4E7" transform="translate(183,462)"/>
<path d="M0 0 C1.32 0.33 2.64 0.66 4 1 C4 1.66 4 2.32 4 3 C5.32 2.67 6.64 2.34 8 2 C8.433125 3.11375 8.86625 4.2275 9.3125 5.375 C10.69911119 9.17512334 10.69911119 9.17512334 14 11 C13.67 11.66 13.34 12.32 13 13 C11.39179588 11.58791833 9.78859292 10.17013964 8.1875 8.75 C7.29417969 7.96109375 6.40085938 7.1721875 5.48046875 6.359375 C3.35871775 4.34120555 1.65745577 2.40083295 0 0 Z " fill="#DDAED9" transform="translate(159,439)"/>
<path d="M0 0 C0.99 0.33 1.98 0.66 3 1 C-4.68265683 9.08118081 -4.68265683 9.08118081 -9 11 C-9.99 10.67 -10.98 10.34 -12 10 C-11.34 10 -10.68 10 -10 10 C-10 9.34 -10 8.68 -10 8 C-7.91796875 6.01953125 -7.91796875 6.01953125 -5.1875 3.8125 C-4.29417969 3.07644531 -3.40085938 2.34039062 -2.48046875 1.58203125 C-1.66191406 1.05996094 -0.84335938 0.53789063 0 0 Z " fill="#E6C2E5" transform="translate(184,109)"/>
<path d="M0 0 C0.66 0.33 1.32 0.66 2 1 C0.44523615 2.77816682 -1.11816024 4.54727102 -2.6875 6.3125 C-3.55761719 7.29863281 -4.42773438 8.28476563 -5.32421875 9.30078125 C-7.78749661 11.78563526 -9.84522538 13.51129034 -13 15 C-13.66 14.67 -14.32 14.34 -15 14 C-10.05 9.38 -5.1 4.76 0 0 Z " fill="#E2B1E2" transform="translate(162,128)"/>
<path d="M0 0 C0.33 0.99 0.66 1.98 1 3 C-1.64 5.64 -4.28 8.28 -7 11 C-7.33 9.68 -7.66 8.36 -8 7 C-5.36 4.69 -2.72 2.38 0 0 Z " fill="#E6BAE2" transform="translate(132,155)"/>
</svg>
