<?xml version="1.0" standalone="no"?>
<!DOCTYPE svg PUBLIC "-//W3C//DTD SVG 20010904//EN"
 "http://www.w3.org/TR/2001/REC-SVG-20010904/DTD/svg10.dtd">
<svg version="1.0" xmlns="http://www.w3.org/2000/svg"
 width="549.000000pt" height="561.000000pt" viewBox="0 0 549.000000 561.000000"
 preserveAspectRatio="xMidYMid meet">

<g transform="translate(0.000000,561.000000) scale(0.100000,-0.100000)"
fill="#000000" stroke="none">
<path d="M0 2805 l0 -2805 2745 0 2745 0 0 2805 0 2805 -2745 0 -2745 0 0
-2805z m3914 1456 c160 -160 267 -274 271 -290 8 -32 21 -495 31 -1057 l7
-421 -228 -274 c-125 -151 -237 -278 -249 -284 -13 -6 -294 -11 -760 -13
l-739 -3 9 -397 c5 -218 9 -435 9 -482 l0 -85 -193 -3 c-224 -3 -189 -16 -342
131 -53 51 -136 130 -185 176 -50 46 -129 122 -176 167 l-86 84 -7 357 c-4
197 -11 565 -16 818 -5 253 -12 647 -16 875 l-7 415 84 76 c46 41 174 156 284
255 110 98 211 189 225 202 l25 22 897 -2 898 -3 264 -264z"/>
<path d="M2213 3705 c-6 -17 1 -454 14 -797 l6 -178 405 0 c463 0 519 5 569
55 52 52 56 85 50 435 -5 338 -11 386 -59 437 -53 57 -56 57 -536 61 -408 3
-443 2 -449 -13z"/>
</g>
</svg>
